<svg id="visual" viewBox="0 0 900 600" width="900" height="600" xmlns="http://www.w3.org/2000/svg" xmlns:xlink="http://www.w3.org/1999/xlink" version="1.1"><path d="M0 399L18.8 407C37.7 415 75.3 431 112.8 432.2C150.3 433.3 187.7 419.7 225.2 434.5C262.7 449.3 300.3 492.7 337.8 510.7C375.3 528.7 412.7 521.3 450.2 505.3C487.7 489.3 525.3 464.7 562.8 464.5C600.3 464.3 637.7 488.7 675.2 501.3C712.7 514 750.3 515 787.8 504.3C825.3 493.7 862.7 471.3 881.3 460.2L900 449L900 601L881.3 601C862.7 601 825.3 601 787.8 601C750.3 601 712.7 601 675.2 601C637.7 601 600.3 601 562.8 601C525.3 601 487.7 601 450.2 601C412.7 601 375.3 601 337.8 601C300.3 601 262.7 601 225.2 601C187.7 601 150.3 601 112.8 601C75.3 601 37.7 601 18.8 601L0 601Z" fill="#6600FF" stroke-linecap="round" stroke-linejoin="miter"></path></svg>